<svg width="90" height="130" viewBox="0 0 90 130" fill="none" xmlns="http://www.w3.org/2000/svg">
<path d="M0 0H68C80.1503 0 90 9.84974 90 22V130H0V0Z" fill="#10B26C"/>
<mask id="mask0" mask-type="alpha" maskUnits="userSpaceOnUse" x="0" y="0" width="90" height="130">
<path d="M0 0H68C80.1503 0 90 9.84974 90 22V130H0V0Z" fill="#10B26C"/>
</mask>
<g mask="url(#mask0)">
<rect width="1.16277" height="162.472" transform="matrix(0.608121 -0.793844 0.577942 0.816078 -28.8228 7.91295)" fill="#165C3C"/>
<rect width="1.16277" height="162.472" transform="matrix(0.608121 -0.793844 0.577942 0.816078 -38.4291 10.1617)" fill="#165C3C"/>
<rect width="1.16277" height="162.472" transform="matrix(0.608121 -0.793844 0.577942 0.816078 -48.0353 12.4104)" fill="#165C3C"/>
<rect width="1.16277" height="162.472" transform="matrix(0.608121 -0.793844 0.577942 0.816078 -19.2166 5.66422)" fill="#165C3C"/>
<rect width="1.16277" height="162.472" transform="matrix(0.608121 -0.793844 0.577942 0.816078 -9.61023 3.41548)" fill="#165C3C"/>
<path d="M-0.00396729 1.16675L0.703139 0.243687L94.6023 132.833L93.8952 133.756L-0.00396729 1.16675Z" fill="#165C3C"/>
<rect width="1.16277" height="162.472" transform="matrix(0.608121 -0.793844 0.577942 0.816078 9.60229 -1.08199)" fill="#165C3C"/>
<rect width="1.16277" height="162.472" transform="matrix(0.608121 -0.793844 0.577942 0.816078 19.2086 -3.33072)" fill="#165C3C"/>
<rect width="1.16277" height="162.472" transform="matrix(0.608121 -0.793844 0.577942 0.816078 28.8148 -5.57947)" fill="#165C3C"/>
<rect width="1.16277" height="162.472" transform="matrix(0.608121 -0.793844 0.577942 0.816078 38.4211 -7.82822)" fill="#165C3C"/>
<rect width="1.16277" height="162.472" transform="matrix(0.608121 -0.793844 0.577942 0.816078 48.0273 -10.0769)" fill="#165C3C"/>
</g>
<rect width="10" height="130" fill="#165C3C"/>
</svg>
